<svg width="23" height="23" viewBox="0 0 23 23" fill="none" xmlns="http://www.w3.org/2000/svg">
<g clip-path="url(#clip0_236_995)">
<path d="M12.9605 17.4033L18.8333 11.4999L12.9605 5.59659C12.9075 5.52694 12.8401 5.4695 12.7629 5.42815C12.6858 5.38681 12.6006 5.36253 12.5133 5.35695C12.4259 5.35138 12.3383 5.36464 12.2565 5.39584C12.1747 5.42704 12.1006 5.47546 12.0391 5.5378C11.9777 5.60015 11.9303 5.67497 11.9003 5.7572C11.8703 5.83944 11.8583 5.92716 11.8651 6.01444C11.8719 6.10172 11.8974 6.18652 11.9399 6.26309C11.9823 6.33966 12.0407 6.40622 12.1111 6.45825L16.505 10.8888L4.81443 10.8888C4.65235 10.8888 4.49691 10.9532 4.3823 11.0678C4.2677 11.1824 4.20331 11.3378 4.20331 11.4999C4.20331 11.662 4.2677 11.8174 4.3823 11.932C4.49691 12.0466 4.65235 12.111 4.81443 12.111L16.505 12.111L12.1111 16.5416C11.9968 16.6567 11.933 16.8124 11.9335 16.9746C11.9341 17.1367 11.9991 17.292 12.1141 17.4063C12.2292 17.5206 12.385 17.5844 12.5471 17.5839C12.7093 17.5833 12.8646 17.5183 12.9789 17.4033L12.9605 17.4033Z" fill="#312780"/>
</g>
<defs>
<clipPath id="clip0_236_995">
<rect width="22" height="22" fill="white" transform="translate(22.5 0.5) rotate(90)"/>
</clipPath>
</defs>
</svg>
