<svg width="49" height="49" viewBox="0 0 49 49" fill="none" xmlns="http://www.w3.org/2000/svg">
<rect x="0.5" y="0.5" width="48" height="48" rx="24" fill="#EC8C1F"/>
<path d="M21.4757 27.1308C20.8741 27.1308 20.3199 27.1308 19.7499 27.1308C19.2749 27.1308 18.7999 27.1308 18.3249 27.1308C17.8341 27.1308 17.6599 26.9724 17.6599 26.4816C17.6599 25.1991 17.6599 23.9008 17.6599 22.6183C17.6599 22.1274 17.8341 21.9691 18.3249 21.9691C19.2432 21.9691 20.1616 21.9691 21.0799 21.9691C21.1907 21.9691 21.3016 21.9691 21.4599 21.9691C21.4599 21.8266 21.4599 21.7158 21.4599 21.5891C21.4757 20.4174 21.4441 19.2299 21.5391 18.0583C21.7924 15.0816 24.0724 12.9599 27.0491 12.8649C28.2682 12.8174 29.4874 12.8491 30.7066 12.8649C31.1341 12.8649 31.3082 13.0391 31.3082 13.4666C31.3082 14.6699 31.3082 15.8733 31.3082 17.0924C31.3082 17.5516 31.1499 17.7258 30.6749 17.7258C29.8357 17.7416 28.9966 17.7416 28.1732 17.7574C27.2391 17.7574 26.8432 18.1374 26.8274 19.0558C26.8116 19.9899 26.8274 20.9241 26.8274 21.9058C26.9699 21.9058 27.0807 21.9058 27.1916 21.9058C28.2524 21.9058 29.3132 21.9058 30.3741 21.9058C31.0391 21.9058 31.1974 22.0641 31.1974 22.7133C31.1974 23.9483 31.1974 25.1674 31.1974 26.4024C31.1974 26.9566 31.0549 27.0991 30.5007 27.0991C29.2974 27.0991 28.0941 27.0991 26.8274 27.0991C26.8274 27.2416 26.8274 27.3683 26.8274 27.4949C26.8274 30.7249 26.8274 33.9549 26.8274 37.1849C26.8274 38.0716 26.7324 38.1666 25.8299 38.1666C24.6424 38.1666 23.4549 38.1666 22.2674 38.1666C21.6341 38.1666 21.4757 38.0083 21.4757 37.3908C21.4757 34.1133 21.4757 30.8358 21.4757 27.5424C21.4757 27.4158 21.4757 27.3049 21.4757 27.1308Z" fill="#F5F5F5"/>
</svg>
