<svg width="80" height="81" viewBox="0 0 80 81" fill="none" xmlns="http://www.w3.org/2000/svg">
<rect y="0.207764" width="80" height="80" rx="4" fill="#0981C4"/>
<g clip-path="url(#clip0_247_164)">
<path d="M67 48.1302C66.9156 48.4339 66.8313 48.7377 66.7385 49.033C66.0635 51.0663 64.1736 52.5005 62.0222 52.568C61.0182 52.6018 60.0227 52.568 59.0187 52.5933C58.8668 52.5933 58.6137 52.7536 58.5799 52.8802C58.0569 55.0485 56.0151 57.0987 53.0959 57.0734C50.4214 57.048 48.2785 55.175 47.7132 52.7621C47.7047 52.7115 47.671 52.6608 47.6372 52.5765H47.131C43.2838 52.5765 39.4366 52.5765 35.5809 52.5765C35.2012 52.5765 35.0072 52.6355 34.889 53.0658C34.1972 55.4788 31.9783 57.1071 29.5063 57.0902C27.0258 57.0734 24.866 55.4113 24.1657 52.9983C24.132 52.8802 24.0898 52.7621 24.0392 52.5933C23.5076 52.5933 22.9677 52.5933 22.4361 52.5933C19.0782 52.5933 16.775 50.3069 16.7497 46.9406C16.7412 45.7088 16.7497 44.4855 16.7497 43.1862C15.8553 43.1862 15.0032 43.1946 14.1511 43.1862C13.3918 43.1693 12.8687 42.5365 13.029 41.8616C13.1555 41.3385 13.5774 41.0094 14.2101 41.001C15.037 40.9841 15.8553 41.001 16.7159 41.001V32.2519C15.9735 32.2519 15.2479 32.2519 14.5139 32.2519C13.5183 32.2519 13.0205 31.8891 13.0121 31.1804C13.0037 30.4464 13.5183 30.0752 14.5392 30.0752C15.2563 30.0752 15.9735 30.0752 16.7075 30.0752C16.7581 29.5521 16.7665 29.0796 16.8593 28.6156C17.3824 26.0086 19.576 24.22 22.2843 24.2115C27.608 24.2031 32.9317 24.2115 38.2554 24.2115C41.6808 24.2115 45.1062 24.2115 48.54 24.2115C51.9485 24.2115 54.2518 26.5232 54.2518 29.9402C54.2518 30.5898 54.2518 31.231 54.2518 31.9397C54.4965 31.9397 54.6821 31.9397 54.8677 31.9397C56.0236 31.9397 57.1879 31.9482 58.3437 31.9397C60.183 31.9144 61.6341 32.6738 62.5959 34.2093C63.1359 35.0783 63.583 36.0316 63.9121 37.0019C64.8739 39.8451 65.7513 42.7137 66.6625 45.5654C66.7806 45.9282 66.8819 46.2994 66.9916 46.6622V48.1386L67 48.1302ZM47.6457 50.4082C47.6879 50.2816 47.7301 50.1888 47.7638 50.0876C48.54 47.5396 50.6155 45.9282 53.1466 45.9197C55.6692 45.9197 57.7784 47.5143 58.5462 50.0538C58.6306 50.3322 58.7571 50.4082 59.0187 50.4082C59.913 50.3997 60.8157 50.4251 61.71 50.3997C64.0049 50.3238 65.2957 48.493 64.6124 46.291C64.1483 44.7976 63.659 43.3212 63.2034 41.8278C63.0937 41.4566 62.925 41.3469 62.5453 41.3469C60.8073 41.3638 59.0693 41.3554 57.3228 41.3469C56.4454 41.3469 55.9392 40.9504 55.9308 40.2586C55.9308 39.5667 56.4285 39.1618 57.2975 39.1618C58.6474 39.1618 60.0058 39.1618 61.3557 39.1618C61.6594 39.1618 61.9716 39.1618 62.3428 39.1618C61.8957 37.8118 61.5835 36.5126 60.8073 35.3989C60.2083 34.5468 59.4152 34.0912 58.3606 34.1165C57.1625 34.1333 55.9729 34.1165 54.7749 34.1165C54.6062 34.1165 54.4374 34.1333 54.2518 34.1418C54.2518 37.0525 54.2518 39.8958 54.2518 42.7474C54.2518 42.9584 54.2602 43.1693 54.2349 43.3802C54.1759 43.9033 53.7203 44.3083 53.2056 44.3336C52.7078 44.3589 52.2354 44.013 52.1257 43.5152C52.0751 43.279 52.0666 43.0259 52.0666 42.7812C52.0666 38.529 52.0666 34.2768 52.0666 30.0246C52.0666 29.6365 52.0666 29.2484 51.9738 28.8771C51.6026 27.3163 50.3371 26.4051 48.5737 26.4051C39.8753 26.4051 31.1768 26.4051 22.4783 26.4051C22.2674 26.4051 22.0565 26.4051 21.8456 26.422C20.0991 26.5654 18.7155 28.3203 19.0192 30.0667C19.2132 30.0667 19.4242 30.0667 19.6266 30.0667C22.858 30.0667 26.0893 30.0667 29.3291 30.0667C29.54 30.0667 29.751 30.0667 29.9619 30.0921C30.5272 30.1764 30.8984 30.6236 30.8815 31.1889C30.8646 31.8554 30.4006 32.235 29.5738 32.235C26.2496 32.235 22.9339 32.235 19.6098 32.235C19.4073 32.235 19.2048 32.235 18.9854 32.235V40.9841C19.2301 40.9841 19.4326 40.9841 19.6435 40.9841C22.8917 40.9841 26.1484 40.9841 29.3966 40.9841C29.6244 40.9841 29.8606 40.9841 30.0716 41.0432C30.6115 41.1782 30.9153 41.6338 30.8646 42.1906C30.8225 42.7053 30.4428 43.1018 29.9197 43.1693C29.7425 43.1946 29.5653 43.1777 29.3966 43.1777C26.1315 43.1777 22.858 43.1777 19.5929 43.1777H18.9686C18.9686 44.6458 18.9011 46.0294 18.9854 47.4131C19.0951 49.1005 20.3607 50.2816 22.0565 50.3913C22.723 50.4335 23.3895 50.3913 24.0645 50.3913C24.1151 50.2394 24.1573 50.1129 24.1995 49.9779C24.8997 47.5818 27.0427 45.945 29.5063 45.9197C32.0036 45.8944 34.2057 47.5059 34.9059 49.9104C35.024 50.3154 35.1928 50.4166 35.5893 50.4166C39.4366 50.3997 43.2838 50.4082 47.131 50.4082H47.6626H47.6457ZM26.1737 51.4797C26.1653 53.3611 27.6502 54.8798 29.5147 54.8882C31.3962 54.9051 32.9232 53.4117 32.9401 51.5556C32.957 49.6489 31.4552 48.1302 29.5653 48.1218C27.6839 48.1218 26.1821 49.5982 26.1737 51.4797ZM49.7802 51.5303C49.7887 53.4033 51.2989 54.8966 53.1719 54.8966C55.0364 54.8966 56.5551 53.378 56.5551 51.5134C56.5551 49.6235 55.028 48.1133 53.1213 48.1302C51.2483 48.1471 49.7634 49.6489 49.7802 51.5387V51.5303Z" fill="white"/>
<path d="M30.3415 37.702C27.7936 37.702 25.2456 37.702 22.7061 37.702C22.0396 37.702 21.6093 37.3983 21.4828 36.8499C21.3562 36.3099 21.6937 35.7278 22.2421 35.5843C22.4446 35.5337 22.6555 35.5168 22.8664 35.5168C27.8695 35.5168 32.8726 35.5168 37.8842 35.5168C38.0276 35.5168 38.1626 35.5168 38.306 35.5337C38.9388 35.6181 39.3353 36.0737 39.31 36.6727C39.2847 37.2717 38.846 37.6936 38.1963 37.702C37.3526 37.7189 36.5089 37.702 35.6652 37.702C33.8935 37.702 32.1217 37.702 30.3415 37.702Z" fill="white"/>
<path d="M29.4894 52.5763C28.8904 52.5425 28.4517 52.0616 28.477 51.4542C28.5023 50.8298 29.0001 50.3827 29.6328 50.4249C30.2319 50.4586 30.6622 50.9395 30.6453 51.547C30.62 52.1713 30.1306 52.61 29.4894 52.5763Z" fill="white"/>
<path d="M54.2434 51.4795C54.2518 52.0954 53.7793 52.5763 53.1634 52.5763C52.556 52.5763 52.0498 52.087 52.0582 51.488C52.0582 50.9058 52.5391 50.4249 53.1213 50.4165C53.7456 50.3996 54.2349 50.8636 54.2434 51.4795Z" fill="white"/>
</g>
<defs>
<clipPath id="clip0_247_164">
<rect width="54" height="32.8826" fill="white" transform="translate(13 24.2078)"/>
</clipPath>
</defs>
</svg>
