<svg width="80" height="81" viewBox="0 0 80 81" fill="none" xmlns="http://www.w3.org/2000/svg">
<rect y="0.207764" width="80" height="80" rx="4" fill="#0981C4"/>
<g clip-path="url(#clip0_247_154)">
<path d="M46.3284 12.5C46.8516 12.5 47.3831 12.5 47.9062 12.5C47.9822 12.5338 48.0581 12.5759 48.1425 12.5928C50.9691 13.1498 52.8253 14.8038 53.5172 17.5886C53.7788 18.6435 53.6859 19.7827 53.7366 20.8882C53.7619 21.462 53.7366 22.0359 53.7366 22.6603H54.4284C58.5628 22.6603 62.6888 22.6603 66.8231 22.6603C67.0003 22.6603 67.1775 22.6603 67.3463 22.6603C68.3925 22.7194 68.9916 23.3439 68.9916 24.3987C68.9916 29.3945 68.9916 34.3819 68.9916 39.3776C68.9916 40.4409 68.3419 41.0738 67.2703 41.0823C65.7263 41.0907 64.1738 41.0823 62.6297 41.0823C62.3006 41.0823 61.9631 41.1076 61.6341 41.1667C59.8959 41.5042 58.74 43.0485 58.8581 44.8544C58.9678 46.5591 60.3347 47.9684 62.0728 48.0359C63.7603 48.1034 65.4478 48.0612 67.1353 48.0781C68.4094 48.0865 69 48.6857 69 49.9684C69 54.8376 69 59.7068 69 64.576C69 65.9177 68.4178 66.5 67.0763 66.5C62.2416 66.5 57.4069 66.5 52.5722 66.5C51.1294 66.5 50.5809 65.9346 50.5725 64.4831C50.5725 62.8291 50.5894 61.1751 50.5303 59.5295C50.4881 58.3565 49.8806 57.462 48.885 56.8629C46.5225 55.4452 43.6453 57.0738 43.5862 59.8755C43.5525 61.4367 43.5862 63.0063 43.5862 64.5675C43.5862 65.9177 43.0041 66.5 41.6709 66.5C36.8531 66.5 32.0353 66.5 27.2259 66.5C25.7072 66.5 25.1672 65.9599 25.1672 64.4325C25.1672 60.2637 25.1672 56.1034 25.1672 51.9346C25.1672 51.7236 25.1672 51.5211 25.1672 51.2426C24.9309 51.2426 24.7369 51.2426 24.5512 51.2426C23.4966 51.2426 22.4419 51.2679 21.3872 51.2173C19.0162 51.1076 17.1769 50.019 15.9787 47.9852C15.5147 47.2004 15.3206 46.2722 15 45.403C15 44.8797 15 44.3481 15 43.8249C15.2869 42.9895 15.4556 42.0781 15.8859 41.3186C17.1347 39.116 19.0922 37.9937 21.6319 37.9262C22.7878 37.8924 23.9438 37.9262 25.1588 37.9262C25.1588 37.6646 25.1588 37.462 25.1588 37.2595C25.1588 33.0738 25.1588 28.8966 25.1588 24.711C25.1588 23.2257 25.7072 22.6688 27.1922 22.6688C31.3772 22.6688 35.5538 22.6688 39.7388 22.6688C39.9412 22.6688 40.1522 22.6688 40.4138 22.6688C40.4138 21.403 40.38 20.1962 40.4138 18.9895C40.4813 16.8797 41.3841 15.1751 43.0378 13.8671C43.9997 13.1076 45.1303 12.7532 46.3031 12.5H46.3284ZM65.8191 25.8249C65.5744 25.8249 65.3634 25.8249 65.1609 25.8249C60.9591 25.8249 56.7572 25.8249 52.5637 25.8249C51.1462 25.8249 50.5978 25.2679 50.5894 23.8333C50.5894 22.1624 50.6062 20.4916 50.5472 18.8291C50.505 17.6814 49.8975 16.7954 48.9272 16.2046C46.5478 14.7616 43.6538 16.4072 43.6031 19.2342C43.5778 20.7616 43.6031 22.289 43.6031 23.8249C43.6031 25.2848 43.0631 25.8333 41.6034 25.8333C37.4184 25.8333 33.2419 25.8333 29.0569 25.8333C28.5844 25.8333 28.3481 26.0696 28.3481 26.5422C28.3481 30.7785 28.3481 35.0148 28.3481 39.2511C28.3481 40.5 27.7491 41.0907 26.5087 41.0907C24.9984 41.0907 23.4881 41.0907 21.9778 41.0907C21.6656 41.0907 21.345 41.116 21.0328 41.1667C19.3537 41.4789 18.1134 43.0485 18.2063 44.7278C18.2991 46.5084 19.6659 47.9684 21.4125 48.0443C23.0409 48.1118 24.6778 48.0781 26.3147 48.0865C27.8166 48.0865 28.3566 48.6181 28.3566 50.1118C28.3566 54.3143 28.3566 58.5169 28.3566 62.711C28.3566 62.9135 28.3566 63.116 28.3566 63.3017H40.4475C40.4475 62.3143 40.4391 61.3608 40.4475 60.4156C40.4475 59.8924 40.4644 59.3608 40.5403 58.8376C40.9706 55.8924 43.3838 53.5464 46.2947 53.2257C49.3997 52.8797 52.3191 54.6266 53.3231 57.5295C53.6184 58.3734 53.6859 59.3101 53.7534 60.2131C53.8209 61.2426 53.7703 62.2722 53.7703 63.3101H65.8191V51.2257C64.5197 51.2257 63.2541 51.2679 61.9884 51.2257C57.8541 51.057 54.8672 47.0148 55.8881 43.0063C56.6475 40.0274 59.2209 37.9768 62.2922 37.9346C63.465 37.9177 64.6378 37.9346 65.8359 37.9346V25.8418L65.8191 25.8249Z" fill="white"/>
</g>
<defs>
<clipPath id="clip0_247_154">
<rect width="54" height="54" fill="white" transform="translate(15 12.5)"/>
</clipPath>
</defs>
</svg>
