<svg width="80" height="81" viewBox="0 0 80 81" fill="none" xmlns="http://www.w3.org/2000/svg">
<rect y="0.707764" width="80" height="80" rx="4" fill="#0981C4"/>
<path d="M33.6804 51.2552C35.5358 50.2854 37.3321 49.383 39.0947 48.4047C40.7645 47.4771 42.4596 47.3168 44.2897 48.0421C44.3993 47.8734 44.5258 47.7048 44.6354 47.5277C47.3594 43.2435 50.0834 38.9593 52.8159 34.6836C53.3978 33.7728 54.1821 33.4101 55.0339 33.6547C56.2061 33.9836 56.7627 35.2402 56.2145 36.3281C56.1133 36.5389 55.9784 36.7329 55.8519 36.9269C53.0183 41.3713 50.1931 45.8241 47.351 50.2685C47.1486 50.589 47.0811 50.842 47.2245 51.2299C48.169 53.7853 47.098 56.6526 44.7029 57.9429C41.2199 59.8151 37.72 61.6705 34.2202 63.5174C33.9334 63.6692 33.8238 63.821 33.8322 64.1499C33.8491 65.4402 33.8491 66.739 33.8322 68.0377C33.8154 68.9823 33.2672 69.716 32.4492 69.9352C31.6564 70.1461 30.7625 69.834 30.3661 69.1003C30.189 68.7714 30.0962 68.3582 30.0878 67.9871C30.0541 66.8739 30.0625 65.7523 30.0878 64.6306C30.0878 64.2933 30.0288 64.1331 29.6408 64.0319C27.659 63.5512 26.1494 62.4126 25.1458 60.6163C24.4037 59.3007 23.6447 58.002 22.9025 56.6864C22.2785 55.59 22.523 54.4852 23.4929 53.9286C24.4627 53.3805 25.5422 53.7347 26.1663 54.8226C26.9084 56.1129 27.6421 57.4116 28.3843 58.7019C29.3878 60.4392 31.142 60.9115 32.913 59.9585C36.2105 58.1875 39.5164 56.4418 42.8223 54.6792C43.5475 54.2913 43.8596 53.6925 43.7837 52.8913C43.7162 52.1913 43.2439 51.5504 42.5271 51.4492C42.0633 51.3817 41.4982 51.4492 41.0765 51.6685C38.3694 53.0431 35.6876 54.4768 32.9973 55.8767C31.9853 56.408 30.9817 56.2394 30.4504 55.3876C30.2143 55.0165 30.1553 54.5105 30.0878 54.0636C29.936 53.06 29.9866 52.0058 29.6661 51.0613C28.7975 48.4891 26.1663 47.0554 23.4254 47.4855C20.8785 47.8903 18.8292 50.1758 18.8039 52.8154C18.7533 57.7152 18.787 62.6235 18.7786 67.5233C18.7786 67.7426 18.787 67.9534 18.7786 68.1727C18.6858 69.2606 17.8846 70.0027 16.8389 69.9774C15.8016 69.9521 15.0257 69.1678 15.0257 68.063C15.0173 64.5716 15.0257 61.0802 15.0257 57.5887C15.0257 56.096 15.0173 54.6033 15.0257 53.119C15.0679 47.9156 18.8967 43.9097 24.0832 43.6314C28.3758 43.4037 32.4239 46.406 33.5286 50.6396C33.5792 50.8251 33.6298 51.0191 33.6973 51.2721L33.6804 51.2552Z" fill="white"/>
<path d="M47.0305 16.0037C52.0146 16.0037 56.9904 15.9953 61.9745 16.0037C65.525 16.0122 68.2911 18.3482 68.8899 21.8312C68.9658 22.2698 68.9742 22.7252 68.9742 23.1806C68.9742 28.0214 68.9827 32.8706 68.9742 37.7114C68.9742 41.8943 65.9972 44.8629 61.8227 44.8713C61.0806 44.8713 60.33 44.8798 59.5878 44.8713C58.4999 44.846 57.665 44.0027 57.6819 42.9654C57.6988 41.9365 58.5084 41.1353 59.5794 41.11C60.4059 41.0932 61.2239 41.11 62.0504 41.11C63.8383 41.0847 65.1961 39.786 65.2045 37.9897C65.2298 32.9718 65.2298 27.9455 65.2045 22.9276C65.2045 21.0216 63.8552 19.7819 61.8564 19.7819C55.2109 19.7819 48.5569 19.7819 41.9114 19.7819C38.6983 19.7819 35.4767 19.7819 32.2636 19.7819C30.0625 19.7819 28.8143 21.0385 28.8143 23.2565C28.8143 23.5938 28.8312 23.9227 28.8143 24.2601C28.7553 25.2299 27.9878 25.9973 27.0349 26.0479C26.1072 26.0901 25.1879 25.4323 25.0952 24.5046C24.8759 22.2529 25.1879 20.1193 26.7819 18.3482C28.1987 16.7712 29.9781 16.0037 32.0949 16.0122C37.0791 16.0122 42.0548 16.0122 47.0389 16.0122L47.0305 16.0037Z" fill="white"/>
<path d="M31.3022 35.4425C31.3022 39.2629 28.1987 42.3917 24.3952 42.3664C20.6086 42.3495 17.5136 39.246 17.5051 35.4678C17.5051 31.6559 20.6339 28.5271 24.429 28.544C28.224 28.5609 31.3022 31.6391 31.3022 35.4425ZM27.5325 35.4594C27.5325 33.7221 26.1325 32.3137 24.4037 32.3137C22.6832 32.3137 21.2664 33.739 21.2664 35.4594C21.2664 37.1798 22.6832 38.6051 24.4037 38.6051C26.1325 38.6051 27.5325 37.1967 27.5325 35.4594Z" fill="white"/>
<path d="M46.9883 29.809C43.674 29.809 40.3597 29.809 37.0454 29.809C36.2442 29.809 35.6454 29.4633 35.2828 28.7464C34.9539 28.0971 35.0129 27.4477 35.4261 26.8489C35.7972 26.3092 36.3201 26.0393 36.9779 26.0393C43.6656 26.0393 50.3533 26.0393 57.0325 26.0393C58.1205 26.0393 58.9469 26.8911 58.9385 27.9368C58.9301 28.9826 58.0952 29.7922 56.9904 29.7922C53.6592 29.8006 50.328 29.7922 46.9883 29.7922V29.809Z" fill="white"/>
<path d="M41.9367 37.3403C40.3513 37.3403 38.7658 37.3403 37.1803 37.3403C35.949 37.3403 35.0804 36.5476 35.0888 35.4428C35.0972 34.338 35.949 33.5706 37.2056 33.5706C40.4019 33.5706 43.5897 33.5706 46.786 33.5706C48.0341 33.5706 48.8943 34.3296 48.9112 35.4343C48.928 36.5476 48.0425 37.3319 46.7691 37.3403C45.1667 37.3403 43.556 37.3403 41.9536 37.3403H41.9367Z" fill="white"/>
</svg>
