<svg width="85" height="84" viewBox="0 0 85 84" fill="none" xmlns="http://www.w3.org/2000/svg">
<rect x="0.5" width="84" height="84" rx="4" fill="#0981C4"/>
<path d="M54.96 51.73C54.96 45.07 54.99 38.41 54.94 31.75C54.93 30.17 55.67 29.52 57.16 29.52C61.26 29.53 65.37 29.52 69.47 29.52C71.04 29.52 71.78 30.25 71.78 31.8C71.78 45.09 71.78 58.39 71.78 71.68C71.78 73.19 71.02 74 69.49 73.98C65.34 73.93 61.18 73.96 57.03 73.96C55.57 73.96 54.96 73.37 54.96 71.92C54.96 65.19 54.96 58.45 54.96 51.72V51.73ZM58.59 70.37H68.14V33.18H58.59V70.37Z" fill="white"/>
<path d="M34.8399 56.5501C34.8399 51.3901 34.8699 46.2401 34.8099 41.0801C34.7999 40.1101 35.5799 39.1701 36.6199 39.1601C40.9699 39.1401 45.3299 39.0701 49.6799 39.1901C51.2199 39.2301 51.6199 39.7901 51.6399 41.3701C51.6999 45.6201 51.6599 49.8801 51.6599 54.1301C51.6599 59.9401 51.6599 65.7401 51.6599 71.5501C51.6599 73.2401 50.8399 74.0201 49.2099 74.0001C45.0799 73.9301 40.9499 73.9401 36.8199 74.0001C35.6699 74.0201 34.7799 73.1701 34.7999 71.9401C34.8599 66.8101 34.8199 61.6801 34.8199 56.5501H34.8399ZM48.0399 42.8101H38.4899V70.3701H48.0399V42.8101Z" fill="white"/>
<path d="M59.31 13.62C58.03 13.62 56.76 13.62 55.48 13.62C54.81 13.62 53.88 12.75 53.77 11.99C53.66 11.27 54.31 10.27 55.01 10.12C55.37 10.05 55.74 10 56.11 10C58.81 10 61.52 10 64.22 10C65.68 10 66.28 10.61 66.28 12.08C66.28 14.63 66.3 17.19 66.27 19.74C66.27 20.21 66.15 20.72 65.95 21.15C65.6 21.92 64.96 22.17 63.94 21.97C63.27 21.84 62.87 21.4 62.78 20.71C62.74 20.39 62.68 20.07 62.68 19.75C62.67 18.42 62.68 17.1 62.68 15.61C62.16 16 61.71 16.3 61.3 16.64C59.53 18.14 57.79 19.66 56.02 21.16C53.93 22.92 51.82 24.65 49.74 26.41C48.31 27.62 46.9 28.86 45.47 30.07C43.7 31.56 41.92 33.03 40.15 34.51C39.81 34.79 39.5 35.14 39.11 35.33C38.32 35.72 37.61 35.5 36.99 34.88C35.05 32.93 33.1 30.99 31.12 29.01C30.03 29.98 28.96 30.93 27.9 31.88C26.9 32.77 25.92 33.68 24.91 34.56C24.24 35.14 23.16 35.06 22.58 34.44C21.95 33.78 21.88 32.55 22.53 31.98C24.71 30.03 26.87 28.06 29.03 26.09C29.27 25.87 29.51 25.65 29.72 25.4C30.46 24.49 31.89 24.62 32.63 25.38C34.41 27.21 36.24 28.99 38.02 30.82C38.44 31.26 38.76 31.18 39.14 30.86C42 28.45 44.86 26.05 47.72 23.63C49.47 22.15 51.2 20.64 52.95 19.17C55.07 17.38 57.2 15.6 59.33 13.82C59.35 13.81 59.34 13.77 59.35 13.75C59.38 13.71 59.42 13.68 59.45 13.64C59.41 13.64 59.37 13.64 59.33 13.64L59.31 13.62Z" fill="white"/>
<path d="M14.7201 61.4401C14.7201 57.8801 14.7501 54.3301 14.7001 50.7701C14.6801 49.5901 15.5001 48.7701 16.6601 48.7701C20.9201 48.7701 25.1701 48.7501 29.4301 48.7701C30.8701 48.7701 31.5501 49.5101 31.5501 50.9301C31.5501 57.8901 31.5301 64.8501 31.5701 71.8201C31.5701 72.9001 30.6701 74.0201 29.4201 74.0001C25.1401 73.9401 20.8601 73.9801 16.5801 73.9801C15.4201 73.9801 14.7201 73.2801 14.7201 72.1201C14.7201 68.5601 14.7201 65.0101 14.7201 61.4501V61.4401ZM27.9001 70.3801V52.4301H18.3801V70.3801H27.9001Z" fill="white"/>
<path d="M21.15 37.4198C20.96 37.7698 20.84 38.1898 20.56 38.4598C19.51 39.4998 18.41 40.4898 17.33 41.4998C17.02 41.7798 16.69 42.0398 16.39 42.3298C15.27 43.3498 13.63 42.9398 13.27 41.4798C13.04 40.5498 13.65 39.9098 14.28 39.3298C15.46 38.2398 16.66 37.1598 17.84 36.0698C18.47 35.4898 19.31 35.2798 19.99 35.6998C20.57 36.0598 21.13 36.5198 21.15 37.4298V37.4198Z" fill="white"/>
<path d="M59.31 13.6201C59.31 13.6201 59.39 13.6201 59.43 13.6201C59.4 13.6601 59.36 13.6901 59.33 13.7301L59.28 13.6901L59.3 13.6301L59.31 13.6201Z" fill="#ABABAB"/>
</svg>
