<svg width="80" height="81" viewBox="0 0 80 81" fill="none" xmlns="http://www.w3.org/2000/svg">
<rect y="0.207764" width="80" height="80" rx="4" fill="#0981C4"/>
<g clip-path="url(#clip0_247_175)">
<path d="M41.4055 13.2078C41.9792 13.2921 42.5444 13.3765 43.1181 13.4693C47.4291 14.1358 51.1327 16.0171 54.2373 19.0542C57.0298 21.7876 58.8774 25.0863 59.7632 28.8996C60.7418 33.1009 60.4044 37.2094 58.7424 41.1915C58.5568 41.6386 58.5652 41.9676 58.8099 42.3979C61.4421 46.9282 64.0574 51.4586 66.6474 56.0143C66.8751 56.4192 67.0354 56.9507 66.9932 57.3979C66.9173 58.3427 66.0315 58.9417 65.0444 58.7899C62.1929 58.3681 59.3414 57.9294 56.4983 57.4907C55.7475 57.3726 55.7475 57.3641 55.4775 58.0559C54.4736 60.629 53.4781 63.1937 52.4741 65.7668C52.3813 66.0115 52.2801 66.2646 52.1367 66.4839C51.5292 67.4541 50.1625 67.5216 49.437 66.6358C49.2683 66.4333 49.1417 66.1971 49.0067 65.9693C46.7205 62.0126 44.4258 58.0643 42.1564 54.0992C41.9623 53.7618 41.7683 53.6521 41.3802 53.669C40.4691 53.7111 39.5495 53.7027 38.6384 53.669C38.2756 53.6521 38.0816 53.7618 37.896 54.0823C35.6519 57.9968 33.3825 61.9114 31.1299 65.8174C31.0624 65.9355 30.9865 66.0621 30.919 66.1802C30.5478 66.872 30.0079 67.3191 29.198 67.2516C28.3965 67.1841 27.9325 66.678 27.6457 65.944C26.6164 63.2696 25.5534 60.6121 24.5411 57.9378C24.3639 57.4569 24.1361 57.3979 23.689 57.4654C20.9134 57.904 18.1294 58.3174 15.3538 58.7308C14.0292 58.9333 13.5484 58.6633 13 57.4485C13 57.2038 13 56.9592 13 56.7061C13.1603 56.4192 13.3206 56.1324 13.4809 55.8456C16.0962 51.3067 18.7115 46.7764 21.3268 42.246C21.4871 41.976 21.5546 41.7483 21.4111 41.4277C19.9348 37.994 19.4286 34.4254 19.9601 30.7049C20.6012 26.1999 22.5332 22.3276 25.7475 19.1301C28.8858 16.0002 32.6907 14.102 37.0945 13.444C37.6091 13.3681 38.1322 13.2921 38.6468 13.2162C39.5579 13.2162 40.4775 13.2162 41.3886 13.2162L41.4055 13.2078ZM40.0135 50.3619C49.2767 50.3872 56.8948 42.7859 56.9201 33.4974C56.9454 24.2342 49.3442 16.6161 40.0557 16.5908C30.7925 16.5655 23.1744 24.1667 23.149 33.4552C23.1237 42.7184 30.725 50.3366 40.0135 50.3619ZM45.4297 52.994C47.1086 55.9046 48.7537 58.7477 50.4325 61.6583C50.5422 61.3883 50.6181 61.2196 50.694 61.034C51.4618 59.0683 52.221 57.111 52.9888 55.1453C53.4106 54.0739 54.0349 53.7027 55.1654 53.863C56.4139 54.0402 57.6625 54.2426 58.9111 54.4367C59.9573 54.597 61.0034 54.7488 62.1507 54.9175C60.261 51.6358 58.4134 48.4468 56.5405 45.1903C53.7143 49.0627 50.0276 51.6526 45.4297 52.994ZM17.9184 54.926C20.2553 54.5717 22.4826 54.2511 24.7014 53.8967C26.009 53.6943 26.6502 54.0317 27.131 55.2466C27.8903 57.1954 28.6412 59.1358 29.4004 61.0846C29.4679 61.2533 29.5439 61.4136 29.6451 61.6414C31.324 58.7308 32.9691 55.8962 34.6479 52.9856C30.0416 51.6442 26.3633 49.0542 23.5371 45.1903C21.6642 48.4468 19.8251 51.6358 17.9269 54.926H17.9184Z" fill="white"/>
<path d="M40.0304 26.7232C39.4398 26.7232 38.9083 26.7316 38.3853 26.7232C37.3898 26.6979 36.6558 25.9808 36.6558 25.0359C36.6558 24.091 37.3898 23.3655 38.3853 23.3486C39.4904 23.3317 40.604 23.3317 41.7092 23.3486C42.6963 23.3655 43.4049 24.0657 43.4049 25.0612C43.4134 30.6714 43.4134 36.2817 43.4049 41.8919C43.4049 42.8874 42.6541 43.6129 41.7092 43.6129C40.7475 43.6129 40.0304 42.8621 40.0304 41.8244C40.0304 37.0241 40.0304 32.2237 40.0304 27.4234C40.0304 27.2125 40.0304 27.01 40.0304 26.7232Z" fill="white"/>
</g>
<defs>
<clipPath id="clip0_247_175">
<rect width="54" height="54.0506" fill="white" transform="translate(13 13.2078)"/>
</clipPath>
</defs>
</svg>
