<svg width="49" height="49" viewBox="0 0 49 49" fill="none" xmlns="http://www.w3.org/2000/svg">
<rect x="0.5" y="0.5" width="48" height="48" rx="24" fill="#EC8C1F"/>
<path d="M28.3316 38.1822H20.6999C20.5416 38.1822 20.3833 38.1505 20.2408 38.1505C19.2274 38.1188 18.2299 38.0872 17.2324 37.8497C15.1266 37.343 13.5749 36.1555 12.6408 34.1922C12.0708 32.973 11.8966 31.6588 11.8808 30.3288C11.8491 27.5897 11.8333 24.8663 11.8333 22.1272C11.8333 20.813 11.8333 19.4988 12.1658 18.2163C12.7199 15.968 14.0341 14.3688 16.1874 13.498C17.3433 13.023 18.5624 12.8963 19.7974 12.8805C22.3783 12.8488 24.9591 12.833 27.5241 12.833C28.8699 12.833 30.2316 12.833 31.5774 13.118C34.0316 13.6563 35.7574 15.0655 36.6283 17.4563C37.0399 18.6122 37.1508 19.8155 37.1508 21.0188C37.1508 23.948 37.1666 26.8613 37.1508 29.7905C37.1508 30.6138 37.0716 31.453 36.9449 32.2763C36.6758 33.9547 35.9316 35.3955 34.6016 36.488C33.3033 37.5488 31.7833 37.9922 30.1366 38.103C29.5349 38.1505 28.9333 38.1663 28.3316 38.198V38.1822ZM24.5158 35.9338V35.9022C25.1808 35.9022 25.8616 35.918 26.5266 35.9022C27.9674 35.8547 29.4241 35.8705 30.8491 35.6805C32.7966 35.4272 34.1108 34.303 34.6016 32.3555C34.7916 31.5797 34.8549 30.7563 34.8708 29.9488C34.9183 27.5897 34.9341 25.2463 34.9183 22.8872C34.9183 21.6522 34.8708 20.4172 34.7283 19.198C34.4908 17.1555 33.2083 15.778 31.1974 15.3663C30.3266 15.1922 29.4083 15.1447 28.5216 15.1288C26.1466 15.0972 23.7558 15.0972 21.3808 15.1288C20.2724 15.1288 19.1641 15.1763 18.0716 15.3347C16.1399 15.6197 14.8099 16.8705 14.4299 18.7863C14.2558 19.6097 14.2083 20.4647 14.1924 21.3197C14.1449 23.3622 14.1291 25.4205 14.1608 27.463C14.1608 28.888 14.2083 30.313 14.3508 31.7222C14.4933 33.1788 15.1899 34.3505 16.4883 35.1105C17.2799 35.5697 18.1666 35.7597 19.0691 35.7913C20.8899 35.8547 22.7266 35.8863 24.5474 35.9338H24.5158Z" fill="#F5F5F5"/>
<path d="M17.9924 25.4999C17.9924 21.9057 20.9216 18.9766 24.5158 18.9766C28.1258 18.9766 31.0074 21.8741 31.0233 25.4841C31.0233 29.0782 28.1099 32.0074 24.5158 32.0232C20.9216 32.0232 17.9924 29.0941 17.9924 25.4999ZM24.5158 29.7274C26.8591 29.7274 28.7433 27.8432 28.7433 25.5157C28.7433 23.1724 26.8749 21.2882 24.5316 21.2882C22.1883 21.2882 20.2883 23.1724 20.2883 25.5157C20.2883 27.8591 22.1724 29.7274 24.5158 29.7274Z" fill="#F5F5F5"/>
<path d="M31.3242 17.2034C32.1792 17.2192 32.8283 17.9159 32.8125 18.7709C32.7967 19.6101 32.1 20.2592 31.2608 20.2434C30.4217 20.2434 29.7567 19.5309 29.7725 18.6759C29.7883 17.8526 30.485 17.1876 31.3242 17.2034Z" fill="#F5F5F5"/>
</svg>
