<svg width="49" height="49" viewBox="0 0 49 49" fill="none" xmlns="http://www.w3.org/2000/svg">
<rect x="0.5" y="0.5" width="48" height="48" rx="24" fill="#EC8C1F"/>
<path d="M25.8067 35.167H21.4067V20.9537H25.6201V22.8737C25.6201 22.8737 25.7001 22.8337 25.7134 22.8204C26.6467 21.327 28.0334 20.6604 29.7401 20.607C30.7267 20.5804 31.6734 20.7004 32.5801 21.127C33.7401 21.6737 34.3934 22.6337 34.7534 23.8337C35.0467 24.7937 35.1401 25.7804 35.1534 26.767C35.1667 29.5137 35.1534 32.247 35.1667 34.9937C35.1667 35.0337 35.1667 35.0737 35.1667 35.1404H30.7534C30.7534 35.047 30.7534 34.9404 30.7534 34.847C30.7534 32.527 30.7534 30.1937 30.7534 27.8737C30.7534 27.3537 30.7134 26.8204 30.6067 26.3004C30.3401 24.847 29.3934 24.3537 28.0334 24.5137C26.7934 24.6604 26.1134 25.3804 25.9267 26.7137C25.8601 27.207 25.8201 27.7004 25.8201 28.1937C25.8201 30.4204 25.8201 32.6337 25.8201 34.8604C25.8201 34.967 25.8201 35.0604 25.8201 35.1937L25.8067 35.167Z" fill="#F5F5F5"/>
<path d="M14.1934 20.9404H18.5934V35.1404H14.1934V20.9404Z" fill="#F5F5F5"/>
<path d="M18.9533 16.3933C18.9533 17.8067 17.82 18.98 16.42 18.9933C15.0067 18.9933 13.8467 17.8333 13.8467 16.4067C13.8467 15.0067 14.9933 13.86 16.3933 13.8467C17.8067 13.8467 18.9533 14.98 18.9667 16.3933H18.9533Z" fill="#F5F5F5"/>
</svg>
