<svg width="49" height="49" viewBox="0 0 49 49" fill="none" xmlns="http://www.w3.org/2000/svg">
<rect x="0.5" y="0.5" width="48" height="48" rx="24" fill="#EC8C1F"/>
<path d="M37.7861 35.8481C37.2592 35.1277 36.7306 34.4081 36.2054 33.6862C35.6288 32.8942 35.0547 32.0991 34.478 31.3072C33.796 30.3698 33.1132 29.4331 32.4303 28.4957C31.9667 27.8588 31.5022 27.2228 31.0377 26.5859C30.2806 25.5483 29.5244 24.5106 28.7666 23.473C28.6814 23.3561 28.5988 23.2361 28.5019 23.1279C28.4673 23.089 28.4664 23.0794 28.4976 23.0453C29.1333 22.3472 29.7672 21.6483 30.4029 20.9502C30.9972 20.2982 31.5949 19.6478 32.1892 18.9958C32.6816 18.4567 33.1714 17.9152 33.6637 17.3761C34.1046 16.8927 34.5497 16.4125 34.9906 15.9291C35.3177 15.5705 35.6372 15.2063 35.9651 14.8485C36.3344 14.4454 36.7104 14.047 37.0821 13.6463C37.1125 13.6137 37.1353 13.5755 37.1782 13.5183C37.0602 13.5135 36.97 13.5064 36.8807 13.5064C36.3538 13.504 35.8269 13.5032 35.3 13.5032C35.1744 13.5032 35.0639 13.5111 34.9662 13.6209C34.2917 14.3738 33.608 15.1188 32.926 15.8662C32.1732 16.6916 31.4187 17.5161 30.6651 18.3406C29.6779 19.4212 28.6898 20.5017 27.7027 21.5823C27.6462 21.6435 27.5939 21.7079 27.5315 21.781C27.3385 21.5163 27.1539 21.2634 26.9701 21.0098C26.1035 19.8219 25.2368 18.634 24.3694 17.4461C23.6283 16.43 22.8865 15.4138 22.1455 14.3969C21.9398 14.1138 21.7374 13.8284 21.5284 13.5477C21.5081 13.5199 21.4533 13.5016 21.4146 13.5016C19.2438 13.5 17.073 13.5 14.903 13.5C14.7909 13.5 14.678 13.5 14.5658 13.5032C14.5431 13.5032 14.5195 13.5143 14.5009 13.527C14.4967 13.5302 14.5077 13.5612 14.5186 13.5755C14.801 13.9643 15.0843 14.3524 15.3667 14.7412C15.8742 15.4393 16.38 16.1382 16.8892 16.8347C17.3385 17.4501 17.7946 18.0615 18.2439 18.6761C18.9158 19.5953 19.5852 20.516 20.2562 21.436C20.5977 21.9043 20.9433 22.3694 21.283 22.8385C21.6742 23.3792 22.0578 23.9246 22.4498 24.4637C22.8359 24.9941 23.2287 25.5196 23.625 26.0547C23.5778 26.108 23.5305 26.1645 23.4808 26.2177C23.0804 26.6503 22.6774 27.0812 22.2795 27.5161C21.6455 28.2095 21.015 28.906 20.3827 29.6001C19.7336 30.3133 19.0836 31.025 18.4328 31.7374C17.7786 32.4538 17.1244 33.1694 16.4702 33.8857C15.8321 34.5854 15.1939 35.2859 14.5566 35.9864C14.5389 36.0063 14.5321 36.0349 14.5212 36.0604C14.5304 36.0643 14.5389 36.0699 14.5481 36.0699C15.2158 36.0723 15.8826 36.0747 16.5503 36.0747C16.5823 36.0747 16.6237 36.0532 16.6464 36.0294C16.8361 35.8266 17.0232 35.6215 17.2096 35.4163C17.8789 34.6817 18.5483 33.9478 19.2168 33.2131C19.9882 32.3655 20.7578 31.5155 21.5301 30.6687C22.0097 30.1424 22.4945 29.6192 22.9758 29.0936C23.3518 28.6826 23.727 28.2707 24.1021 27.858C24.2539 27.6911 24.4048 27.5233 24.5607 27.35C24.5776 27.3746 24.5961 27.4048 24.6164 27.4327C25.1458 28.1554 25.676 28.8782 26.2046 29.6009C26.5848 30.1201 26.9625 30.6409 27.3427 31.1601C27.9539 31.995 28.5659 32.8283 29.1763 33.6631C29.7386 34.432 30.3026 35.2001 30.8589 35.9729C30.9213 36.0596 30.9888 36.0739 31.0849 36.0739C33.329 36.0739 35.574 36.0755 37.8181 36.0763C37.8544 36.0763 37.8906 36.0731 37.9395 36.0699C37.8813 35.9864 37.835 35.9149 37.7844 35.8457L37.7861 35.8481ZM34.5969 34.6538C33.7471 34.6554 32.8974 34.657 32.0476 34.6586C31.9675 34.6586 31.9178 34.6316 31.8697 34.5648C31.5654 34.1442 31.2543 33.7275 30.9449 33.3101C30.7047 32.9857 30.4644 32.6613 30.2233 32.3377C29.7571 31.7103 29.2892 31.083 28.823 30.4549C28.3172 29.7735 27.8131 29.0897 27.3064 28.4083C26.3387 27.1059 25.3692 25.8059 24.4022 24.5027C23.9116 23.842 23.4285 23.1772 22.9379 22.5173C22.1615 21.4717 21.38 20.4302 20.6036 19.3838C20.0328 18.6149 19.4689 17.8421 18.9007 17.0716C18.4303 16.4339 17.959 15.7979 17.4878 15.161C17.4532 15.1141 17.4153 15.0687 17.3664 15.0067H17.5004C18.4522 15.0067 19.4039 15.0075 20.3557 15.0043C20.4392 15.0043 20.4906 15.0282 20.5378 15.0918C20.9357 15.6325 21.337 16.1708 21.7374 16.7098C22.2053 17.3396 22.6732 17.9701 23.1419 18.599C23.6174 19.2375 24.0962 19.8744 24.57 20.5144C25.0151 21.1155 25.4543 21.7206 25.8994 22.3217C26.5975 23.2647 27.298 24.2069 27.9977 25.1491C28.8821 26.3402 29.7672 27.5297 30.6507 28.7215C31.0798 29.3012 31.5022 29.8848 31.933 30.4636C32.4792 31.1967 33.0323 31.925 33.5785 32.6589C34.0312 33.2672 34.4764 33.881 34.9257 34.4916C34.9628 34.5417 35.0049 34.5878 35.058 34.6522C34.8945 34.6522 34.7453 34.6522 34.5961 34.6522L34.5969 34.6538Z" fill="white"/>
<path d="M14.3386 36.3167C14.3386 36.3167 14.3412 36.314 14.3429 36.3122V36.3105C14.3429 36.3105 14.3412 36.3105 14.3412 36.3096C14.3404 36.3122 14.3395 36.314 14.3386 36.3167Z" fill="white"/>
</svg>
