<svg width="49" height="49" viewBox="0 0 49 49" fill="none" xmlns="http://www.w3.org/2000/svg">
<rect x="0.5" y="0.5" width="48" height="48" rx="24" fill="#EC8C1F"/>
<path d="M22.1667 28.5247L29.0867 24.5247L22.1667 20.5247V28.5247ZM37.58 18.0847C37.7533 18.7114 37.8733 19.5514 37.9533 20.6181C38.0467 21.6847 38.0867 22.6047 38.0867 23.4047L38.1667 24.5247C38.1667 27.4447 37.9533 29.5914 37.58 30.9647C37.2467 32.1647 36.4733 32.9381 35.2733 33.2714C34.6467 33.4447 33.5 33.5647 31.74 33.6447C30.0067 33.7381 28.42 33.7781 26.9533 33.7781L24.8333 33.8581C19.2467 33.8581 15.7667 33.6447 14.3933 33.2714C13.1933 32.9381 12.42 32.1647 12.0867 30.9647C11.9133 30.3381 11.7933 29.4981 11.7133 28.4314C11.62 27.3647 11.58 26.4447 11.58 25.6447L11.5 24.5247C11.5 21.6047 11.7133 19.4581 12.0867 18.0847C12.42 16.8847 13.1933 16.1114 14.3933 15.7781C15.02 15.6047 16.1667 15.4847 17.9267 15.4047C19.66 15.3114 21.2467 15.2714 22.7133 15.2714L24.8333 15.1914C30.42 15.1914 33.9 15.4047 35.2733 15.7781C36.4733 16.1114 37.2467 16.8847 37.58 18.0847Z" fill="white"/>
</svg>
